<svg clip-rule="evenodd" fill-rule="evenodd" stroke-linejoin="round" stroke-miterlimit="1.4142" version="1.1" viewBox="0 0 400 100" xml:space="preserve" xmlns="http://www.w3.org/2000/svg"><g transform="matrix(.8766 0 0 1.0298 -227.91 -314.29)"><path d="m710.91 324.24c-4.218-9.629-8.522-19.034-19.034-19.034h-408.29c-4.814 0-16.1 13.797-18.151 18.152-7.329 15.562-7.173 42.401 0 61.885 1.564 4.25 12.544 17.073 17.072 17.073h410.44c4.762 0 9.329-1.891 12.696-5.259 3.367-3.367 3.507-8.268 5.259-12.695 6.769-17.11 7.619-42.724 0-60.122z" fill="#724d4d"/><g><g transform="matrix(.99069 0 0 .68665 -94.58 106.07)"><path transform="matrix(1.1515 0 0 1.4143 357.91 290)" d="m20.658 0c-4.2304 0.041971-14.095 14.213-15.891 18.691-3.3018 8.2358-4.8585 19.541-4.75 31.307h399.97c0.02879-10.814-1.4526-21.621-4.7246-30.398-3.6898-9.8949-7.456-19.559-16.629-19.6h-357.98z" fill="#4f3232" stroke-width=".78362"/></g></g></g></svg>
